PathFileType	4	(X/Y/Z)	/Users/visionmauri/2_5_3_f_1_Sports2D/2_5_3_f_1_Sports2D_px_person00.trc
DataRate	CameraRate	NumFrames	NumMarkers	Units	OrigDataRate	OrigDataStartFrame	OrigNumFrames
30.0	30.0	5	22	m	30.0	170	341
Frame#	Time	Hip			RHip			RKnee			RAnkle			RBigToe			RSmallToe			RHeel			LHip			LKnee			LAnkle			LBigToe			LSmallToe			LHeel			Neck			Head			Nose			RShoulder			RElbow			RWrist			LShoulder			LElbow			LWrist			
		X1	Y1	Z1	X2	Y2	Z2	X3	Y3	Z3	X4	Y4	Z4	X5	Y5	Z5	X6	Y6	Z6	X7	Y7	Z7	X8	Y8	Z8	X9	Y9	Z9	X10	Y10	Z10	X11	Y11	Z11	X12	Y12	Z12	X13	Y13	Z13	X14	Y14	Z14	X15	Y15	Z15	X16	Y16	Z16	X17	Y17	Z17	X18	Y18	Z18	X19	Y19	Z19	X20	Y20	Z20	X21	Y21	Z21	X22	Y22	Z22
170	5.683333333333334	530.9817556725661	823.6289129519756	0.0	494.1332040424953	830.4433257030325	0.0	521.0219682143669	991.3123008586934	0.0	559.9415555529813	1134.1098925660192	0.0	549.7549432188582	1184.1069738893582	0.0	533.6878269225232	1177.1276988418938	0.0	575.6899122243121	1159.7139035587502	0.0	568.6888805867926	819.6447216286041	0.0	555.2334242032188	961.5312784074732	0.0	561.17957658457	1133.6717237832881	0.0	539.5248934591698	1186.323048982372	0.0	576.1040854786022	1187.066110590317	0.0	563.1537743613966	1165.4190443621012	0.0	527.8252095253756	598.7231137258426	0.0	520.7823844896039	492.0250938620118	0.0	517.0817402034615	568.3657409095109	0.0	457.66171244244987	617.6816554275441	0.0	427.61659393595363	725.2323942774005	0.0	404.97526085175167	810.2643122155508	0.0	600.1124143231638	623.7662588472118	0.0	653.06001931707	723.3617076457156	0.0	685.1581339127343	808.1400253744251	0.0
171	5.716764705882353	531.6526515385659	825.968514461479	0.0	494.4363561037367	831.8478265629956	0.0	523.2383550289977	991.3936117984808	0.0	560.7226971984234	1136.176548531892	0.0	545.5061161429795	1188.3126225364451	0.0	531.0578810309769	1181.6427229104909	0.0	577.1359528391976	1162.1011636761693	0.0	569.3603646661818	821.7228463316421	0.0	556.2196806525372	965.6427759097653	0.0	561.6378476672041	1134.266496426398	0.0	538.7902196766582	1187.5263232488596	0.0	575.1559804631391	1189.9372396760857	0.0	564.0883822677785	1166.2945488343014	0.0	528.2968889846393	600.8754779952984	0.0	521.7867381236396	492.8203193280841	0.0	519.1218570650152	571.2483888882674	0.0	456.8328249040694	618.0579683882497	0.0	427.05112647715544	726.2011745808668	0.0	405.3420671897682	809.4457037377169	0.0	600.4173216746482	623.6448164696008	0.0	653.7533841402969	723.9736727906983	0.0	685.2540194316038	807.2800967213028	0.0
172	5.750196078431372	533.0442707041417	828.7963847064659	0.0	495.7668384945397	833.8303456780079	0.0	524.8971571141481	992.6159866015802	0.0	561.6436185368892	1138.8154614024158	0.0	539.9794199489244	1195.121540941812	0.0	527.4894906197935	1187.3213110679433	0.0	578.4858667587681	1165.1929742978045	0.0	570.4383903396792	824.4634629982422	0.0	557.9814737354847	971.523047384983	0.0	562.3743644195442	1136.8265490695144	0.0	540.7358863955853	1192.2174102818885	0.0	572.6865458451384	1191.8686519503249	0.0	565.932741097065	1167.8396266224731	0.0	529.0133763406474	602.7336788438432	0.0	522.5108186218179	493.4663754738747	0.0	520.1022439831551	572.7728061350846	0.0	457.10692908018444	618.1798245124554	0.0	427.01562705111917	726.44715965076	0.0	405.7535962232087	808.2442901215062	0.0	601.0185213355869	623.751774539087	0.0	654.7385941280056	725.0308087885666	0.0	684.8275173891515	806.6061471635812	0.0
173	5.783627450980393	534.5850813527767	829.6576880365499	0.0	497.59128528600786	835.0177712112995	0.0	526.4686462566689	994.6351297604177	0.0	562.5002184726636	1141.421914207281	0.0	534.7728600382667	1200.0749833272134	0.0	524.3427806004039	1190.4906665229348	0.0	579.7799599539376	1167.3487665600596	0.0	571.4714620664014	825.8196219842305	0.0	561.5800685251381	975.3712582643112	0.0	565.138409538433	1140.6243170302573	0.0	545.5658964205863	1197.7802141477675	0.0	573.0755774496331	1192.5281330045698	0.0	569.1173404643813	1169.5135713572206	0.0	529.8374118185129	602.9554751428418	0.0	523.2826093179096	494.89074270627606	0.0	519.8752706439085	573.4493662685394	0.0	458.0407583925532	617.7286721794176	0.0	427.4240143603147	726.3159550148163	0.0	406.1089730848494	808.0151222326161	0.0	601.8298091282546	624.0748638598848	0.0	656.330459150428	725.9035573107149	0.0	684.3172142207819	806.7011732089119	0.0
174	5.817058823529412	535.5862708306397	829.0395214053524	0.0	498.75093857418375	834.8764681576505	0.0	527.9116133689662	995.885612048585	0.0	563.1249953797443	1142.9770306119992	0.0	531.0995696241984	1201.1006405724759	0.0	522.2710845906981	1190.354766165702	0.0	580.532954071783	1168.1876586098417	0.0	572.1919305057133	825.8243377231768	0.0	564.7351553436196	975.0343013866035	0.0	568.8078062412693	1143.4059189214424	0.0	549.7567444378152	1200.9438257781044	0.0	576.2654036632803	1193.0826155366256	0.0	572.4366068850869	1170.6734465683362	0.0	530.8457352289777	602.0241097681437	0.0	524.2865725623291	496.45580568348385	0.0	519.6256386789621	574.0846693757252	0.0	458.9458896772693	617.0581496875682	0.0	427.8649652503312	725.924235461018	0.0	406.4638392661653	808.401345118205	0.0	602.8831982377286	624.1566546043889	0.0	658.3215509736027	726.3397059677187	0.0	684.3183520682852	807.4228653756276	0.0
